<svg id="Layer_1" data-name="Layer 1" xmlns="http://www.w3.org/2000/svg" viewBox="0 0 1080 1080"><defs><style>.cls-1,.cls-2{fill:#fff;}.cls-2{font-size:128.17px;font-family:Poppins-ExtraBold, Poppins;font-weight:800;}.cls-3{font-family:Poppins-Regular, Poppins;font-weight:400;}</style></defs><path class="cls-1" d="M575.19,386.59c41.48-34.08,84.17-68.13,126.35-101.4a151.18,151.18,0,0,1,20.61-13.48c60.51-33.87,139.69-18.92,186.72,31.55,28.5,29.71,43.9,70.88,43.43,111.94.07,81.33-61.76,150.09-141.69,162.2-37.86,6.07-77.73-1.86-110.64-21.51-6.76-4-17.44-11.48-24-16-103.39-70.84-213.51-147.75-315.59-220.4-68-52.62-168.11-13.21-183.69,71C163,464,217.52,529.49,291.37,533.68a124.33,124.33,0,0,0,65.14-14.78c13-7.38,25.7-15.62,38.6-23.22,35.3-21.17,70.85-42,107.32-61.63C464.59,469.36,425.5,502.8,386,536a155.18,155.18,0,0,1-60.5,30.44c-57.18,14.72-120.55-5.87-159.7-50-32.34-35.53-46.7-86.28-39.83-133.76,13.61-102.78,122-168.89,220-136.39a179.46,179.46,0,0,1,48.49,24.89C501.72,345.56,615.26,425.84,721.2,502.29a120,120,0,0,0,33.1,17.34c66.79,22.61,141.63-23.11,152.7-92.84,13.43-76-44.51-143.46-120.84-146.8-28.29-1.38-57.31,7.77-80.82,23.95-43,27.75-86.71,55.75-130.15,82.65Z"/><text class="cls-2" transform="translate(149.49 734.26) scale(0.87 1)">DIGITAL <tspan class="cls-3" x="531.78" y="0">WAVE</tspan></text><text/></svg>